<?xml version="1.0" encoding="UTF-8" standalone="no"?>
<!-- Created with Inkscape (http://www.inkscape.org/) -->

<svg
   width="180"
   height="180"
   viewBox="25 55 165 170"
   version="1.1"
   id="svg1"
   inkscape:version="1.3.2 (091e20e, 2023-11-25)"
   sodipodi:docname="fi_pi.svg"
   xmlns:inkscape="http://www.inkscape.org/namespaces/inkscape"
   xmlns:sodipodi="http://sodipodi.sourceforge.net/DTD/sodipodi-0.dtd"
   xmlns="http://www.w3.org/2000/svg"
   xmlns:svg="http://www.w3.org/2000/svg">
  <sodipodi:namedview
     id="namedview1"
     pagecolor="#ffffff"
     bordercolor="#cccccc"
     borderopacity="1"
     inkscape:showpageshadow="0"
     inkscape:pageopacity="1"
     inkscape:pagecheckerboard="0"
     inkscape:deskcolor="#d1d1d1"
     inkscape:document-units="mm"
     inkscape:zoom="1"
     inkscape:cx="397.5"
     inkscape:cy="561"
     inkscape:window-width="1712"
     inkscape:window-height="1045"
     inkscape:window-x="0"
     inkscape:window-y="34"
     inkscape:window-maximized="0"
     inkscape:current-layer="layer2"
     showguides="false" />
  <defs
     id="defs1">
    <filter
       inkscape:collect="always"
       style="color-interpolation-filters:sRGB"
       id="filter3"
       x="-0.045836922"
       y="-0.04282942"
       width="1.0872763"
       height="1.0856573">
      <feGaussianBlur
         inkscape:collect="always"
         stdDeviation="0.038707522"
         id="feGaussianBlur3" />
    </filter>
  </defs>
  <g
     inkscape:groupmode="layer"
     id="layer3"
     inkscape:label="Layer 3"
     style="fill:#87aade">
    <circle
       style="fill:#87aade;fill-opacity:1;stroke:#3f1342;stroke-width:8.56501;stroke-dasharray:none;stroke-opacity:1;opacity:1"
       id="path3"
       cx="105.43645"
       cy="137.18645"
       r="72.892708" />
  </g>
  <g
     inkscape:label="Layer 1"
     inkscape:groupmode="layer"
     id="layer1"
     sodipodi:insensitive="true"
     style="display:none">
    <ellipse
       style="fill:none;fill-opacity:0.817942;stroke:#a9a9ff;stroke-width:0.665001"
       id="path1"
       cx="104.51042"
       cy="141.55208"
       rx="71.966667"
       ry="55.297916" />
  </g>
  <g
     inkscape:groupmode="layer"
     id="layer2"
     inkscape:label="Layer 2"
     sodipodi:insensitive="true"
     style="display:inline">
    <path
       sodipodi:type="spiral"
       style="fill:#8968ba;fill-opacity:1;fill-rule:evenodd;stroke:#d54a4a;stroke-width:8.55246;stroke-dasharray:none;stroke-opacity:1;filter:url(#filter3)"
       id="path2"
       sodipodi:cx="102.65833"
       sodipodi:cy="137.84792"
       sodipodi:expansion="1.618"
       sodipodi:revolution="6.0999999"
       sodipodi:radius="56.80722"
       sodipodi:argument="-20.151649"
       sodipodi:t0="0.37"
       d="m 113.47685,141.34544 c -1.36163,6.74896 -8.40362,10.72589 -14.964032,9.32535 -7.895166,-1.68549 -12.526781,-9.96095 -10.809278,-17.65762 2.032637,-9.10887 11.617745,-14.43328 20.51853,-12.37497 10.38785,2.4022 16.44187,13.37043 14.01988,23.54091 -2.7934,11.73009 -15.21586,18.54942 -26.719585,15.74172 -13.133814,-3.20555 -20.753129,-17.15123 -17.538441,-30.04992 3.63805,-14.5974 19.174038,-23.05046 33.527776,-19.40816 16.11937,4.09033 25.43911,21.282 21.34917,37.14936 -4.5619,17.69838 -23.47304,27.91696 -40.91124,23.35988 -19.333166,-5.05228 -30.482057,-25.74524 -25.438837,-44.81023 5.561058,-21.02259 28.09686,-33.13261 48.843437,-27.58469 22.76557,6.08783 35.86693,30.52627 29.79616,53.00813 -6.63223,24.56112 -33.03196,38.68347 -57.301795,32.07208 -26.408303,-7.19392 -41.580763,-35.61251 -34.41135,-61.72208 7.772592,-28.306232 38.266614,-44.55744 66.266785,-36.812912 10.56999,2.923537 20.15279,9.011046 27.34753,17.281272"
       transform="matrix(0.99999601,0,0,1.0029391,3.923217e-4,-0.24869511)" />
  </g>
</svg>
